HIERARCHY
ROOT ROOT
{
	OFFSET 0.000000 56.020000 -5.659234
	CHANNELS 6 Xposition Yposition Zposition Xrotation Yrotation Zrotation 
	JOINT C_spine0001_bind_JNT
	{
		OFFSET 0.000000 1.618999 0.000000
		CHANNELS 3 Xrotation Yrotation Zrotation
		JOINT C_spine0002_bind_JNT
		{
			OFFSET 0.000000 4.942001 0.000001
			CHANNELS 3 Xrotation Yrotation Zrotation
			JOINT C_spine0003_bind_JNT
			{
				OFFSET 0.000000 4.942001 -0.000000
				CHANNELS 3 Xrotation Yrotation Zrotation
				JOINT C_neck0001_bind_JNT
				{
					OFFSET 0.000000 17.026009 -0.000000
					CHANNELS 3 Xrotation Yrotation Zrotation
					JOINT C_neck0002_bind_JNT
					{
						OFFSET 0.000000 3.249985 0.000000
						CHANNELS 3 Xrotation Yrotation Zrotation
						JOINT C_head_bind_JNT
						{
							OFFSET 0.000000 5.278008 0.000000
							CHANNELS 3 Xrotation Yrotation Zrotation
							End Site
							{
								OFFSET 0.000000 0.000000 0.000000
							}
						}
					}
				}
				JOINT L_clavicle_bind_JNT
				{
					OFFSET 4.590000 12.067001 0.834000
					CHANNELS 3 Xrotation Yrotation Zrotation
					JOINT L_armUpper0001_bind_JNT
					{
						OFFSET 7.812635 0.512001 -3.452945
						CHANNELS 3 Xrotation Yrotation Zrotation
						JOINT L_armLower0001_bind_JNT
						{
							OFFSET 15.265892 -6.552116 -0.058157
							CHANNELS 3 Xrotation Yrotation Zrotation
							JOINT L_hand0001_bind_JNT
							{
								OFFSET 14.747667 -6.369995 5.049225
								CHANNELS 3 Xrotation Yrotation Zrotation
								End Site
								{
									OFFSET 0.000000 0.000000 0.000000
								}
							}
						}
					}
				}
				JOINT R_clavicle_bind_JNT
				{
					OFFSET -4.590000 12.067001 0.834000
					CHANNELS 3 Xrotation Yrotation Zrotation
					JOINT R_armUpper0001_bind_JNT
					{
						OFFSET -7.812635 0.512001 -3.452945
						CHANNELS 3 Xrotation Yrotation Zrotation
						JOINT R_armLower0001_bind_JNT
						{
							OFFSET -15.265890 -6.552124 -0.058160
							CHANNELS 3 Xrotation Yrotation Zrotation
							JOINT R_hand0001_bind_JNT
							{
								OFFSET -14.746784 -6.369629 5.048937
								CHANNELS 3 Xrotation Yrotation Zrotation
								End Site
								{
									OFFSET 0.000000 0.000000 0.000000
								}
							}
						}
					}
				}
			}
		}
	}
	JOINT C_pelvis0001_bind_JNT
	{
		OFFSET -0.000000 0.000000 0.000000
		CHANNELS 3 Xrotation Yrotation Zrotation
		JOINT L_legUpper0001_bind_JNT
		{
			OFFSET 6.599999 -6.027000 0.539000
			CHANNELS 3 Xrotation Yrotation Zrotation
			JOINT L_legLower0001_bind_JNT
			{
				OFFSET -0.140713 -19.187443 0.040261
				CHANNELS 3 Xrotation Yrotation Zrotation
				JOINT L_foot0001_bind_JNT
				{
					OFFSET -0.132215 -18.028637 -1.138370
					CHANNELS 3 Xrotation Yrotation Zrotation
					JOINT L_foot0002_bind_JNT
					{
						OFFSET 0.007014 -4.693133 9.886524
						CHANNELS 3 Xrotation Yrotation Zrotation
						End Site
						{
							OFFSET 0.000000 0.000000 0.000000
						}
					}
				}
			}
		}
		JOINT R_legUpper0001_bind_JNT
		{
			OFFSET -6.599999 -6.027000 0.539000
			CHANNELS 3 Xrotation Yrotation Zrotation
			JOINT R_legLower0001_bind_JNT
			{
				OFFSET 0.140710 -19.187164 0.040550
				CHANNELS 3 Xrotation Yrotation Zrotation
				JOINT R_foot0001_bind_JNT
				{
					OFFSET 0.132215 -18.028633 -1.138362
					CHANNELS 3 Xrotation Yrotation Zrotation
					JOINT R_foot0002_bind_JNT
					{
						OFFSET -0.007014 -4.693128 9.886505
						CHANNELS 3 Xrotation Yrotation Zrotation
						End Site
						{
							OFFSET 0.000000 0.000000 0.000000
						}
					}
				}
			}
		}
	}
}
MOTION
Frames: 12
Frame Time: 0.033333
0.000000 48.778942 0.000000 -0.046269 -54.970333 -0.069880 0.755237 59.402683 -2.437583 8.388642 -0.385132 0.303635 4.149496 0.058942 1.021942 1.622325 -0.783553 -2.375299 0.415861 -7.612398 1.632977 -1.357940 -0.718482 6.361103 -1.963159 11.300401 1.451445 12.809042 20.039223 -58.784039 -8.677648 6.072180 -14.202126 -4.694809 -33.532284 -36.093552 -0.465472 -21.930044 3.528945 -0.868093 -10.150126 51.926937 -25.233189 34.814106 47.149532 14.400805 37.115696 13.522902 3.796281 58.958080 -4.703189 -22.727427 -0.888075 2.638284 25.785988 -12.464047 3.124981 -4.027132 -4.309056 -4.452073 -1.648956 -0.704928 -0.910952 -5.882298 2.311037 7.846442 22.749025 11.170911 -5.935264 -3.599991 -1.278511 -2.305818 -10.976338 -1.352813 0.179465 
0.493596 48.527073 0.439256 0.054639 -56.865391 0.008753 1.559078 59.291054 -3.343725 8.424908 0.084190 0.307681 4.451563 0.130948 -0.077358 1.576697 -1.077165 -2.506469 0.017568 -8.262694 2.018617 0.478424 0.715711 6.178841 -1.139611 9.630589 1.721136 9.814186 19.137499 -57.822556 -9.960222 5.388041 -17.961731 -4.678383 -35.036747 -35.346905 -0.901503 -24.442459 3.293489 1.024018 -8.907875 52.567333 -25.036320 33.947926 46.880924 15.974874 35.633450 13.051424 5.155569 58.583588 -5.788632 -23.009544 0.426428 2.607976 26.237068 -12.190181 3.573348 -4.212056 -1.878627 -3.812733 -1.108736 -0.990574 -0.279116 -7.516588 2.102870 6.883018 25.070629 12.197556 -6.934258 -3.731782 -2.448272 -0.643884 -12.957719 -0.327107 -0.782832 
0.930839 48.438335 0.872724 0.011112 -53.899624 -0.000485 1.546999 54.297684 -2.628558 8.988123 -0.095824 -0.663421 4.886983 0.194962 -0.267609 1.210170 -0.986572 -3.254031 0.159209 -9.158031 2.047516 1.449807 0.531375 7.820774 -2.224365 8.756052 1.904077 8.504539 18.909662 -57.940643 -11.860622 3.416291 -21.117954 -4.839055 -35.216095 -34.312424 -0.755376 -25.004261 4.108228 0.636516 -8.189787 52.095860 -22.699249 33.886402 44.223404 14.828780 35.227062 14.052477 4.738746 53.447220 -4.997049 -24.264477 0.287372 1.786673 26.843342 -9.964034 3.157102 -3.696074 -2.814439 -2.961162 -0.977758 -0.436919 -0.161390 -8.940189 2.718011 6.975475 28.647457 12.677379 -8.538262 -3.105981 -0.971869 0.258243 -15.221159 -0.444300 -0.473808 
1.328226 48.391567 1.224721 0.018473 -51.321701 -0.037514 1.354729 49.064129 -2.413132 9.689052 -0.124949 -1.145156 5.108434 0.205181 -0.354887 1.105064 -1.056510 -3.677163 0.167694 -9.307461 1.384997 1.420282 0.446303 9.065818 -2.392144 7.687461 1.868168 5.697047 17.546972 -57.509075 -13.702454 2.378942 -23.591663 -3.190384 -36.049397 -31.874069 -1.109720 -24.965908 3.780265 0.537455 -8.217020 51.918194 -20.307325 32.621868 41.967316 15.554400 35.061901 14.859879 4.779974 48.396393 -4.623657 -24.298012 0.296416 1.728785 27.968203 -8.123100 2.834200 -5.098966 -1.998176 -2.649004 -0.743850 -0.655763 -0.218667 -11.241604 2.717344 6.069522 30.509722 12.937095 -8.672114 -1.965602 0.208249 1.887182 -16.650743 -0.246717 -0.214245 
1.725200 48.457634 1.491044 0.024416 -48.821266 -0.001896 1.790235 43.764095 -2.667703 10.179917 -0.338292 -1.576586 5.225798 -0.149966 -0.833207 1.145486 -0.923725 -3.662683 0.253588 -9.259565 0.697292 2.041905 0.504472 10.321944 -2.802779 7.148823 2.442902 3.548824 15.659258 -57.371590 -16.270948 0.671061 -26.571800 -2.194207 -36.360836 -29.753443 -0.834769 -24.769182 3.805416 0.427282 -7.847517 51.910313 -16.720444 31.492785 38.019257 14.366500 35.469772 16.888876 4.700313 43.002266 -4.363989 -24.452766 0.282656 1.852558 28.924662 -6.363331 2.299778 -5.604560 -1.305846 -2.180951 -1.082566 -0.595975 -0.062817 -13.465272 3.284022 5.424943 31.954359 12.100481 -8.315260 -1.238614 1.898184 3.440605 -17.424049 -0.302655 0.172398 
2.193530 48.501858 1.810575 0.026462 -47.398155 -0.005866 1.831675 39.485336 -2.631322 10.792966 -0.415902 -1.884131 5.427988 -0.274058 -0.848420 1.438973 -0.675490 -3.899696 0.179492 -9.678144 0.393097 1.822266 0.956260 10.977417 -3.414397 6.135527 2.482315 1.295503 14.377063 -56.655476 -18.392372 -0.189294 -29.655403 -1.004247 -37.245293 -27.863134 -0.648219 -24.553389 3.887384 0.492956 -7.727109 52.130615 -13.612172 30.121386 34.470909 14.622674 35.710350 17.909821 5.009624 38.979916 -4.411832 -24.036581 0.613754 1.915513 29.094620 -5.177300 1.824702 -6.557177 -0.618538 -1.809983 -1.112335 -0.642353 0.190368 -15.806845 3.586853 4.849950 33.531765 11.044869 -7.755101 -1.393479 2.210663 4.383439 -17.369463 -0.359924 0.593908 
2.702762 48.457706 2.161663 0.018349 -44.957802 -0.013181 2.423810 34.306202 -3.095637 11.215646 -0.450605 -1.973488 5.830940 -0.369605 -1.097312 1.232376 -0.829046 -3.797594 0.321044 -9.431998 0.124461 1.632473 0.890904 11.707583 -3.837286 5.188022 2.764356 -1.290188 12.240048 -56.225624 -21.422777 -1.331506 -32.848515 0.252348 -38.488033 -25.214523 -0.446620 -24.385920 4.432195 -0.348543 -7.291892 52.458870 -9.487432 26.546318 29.274227 15.269156 35.669434 18.594095 5.287348 33.704155 -4.314877 -24.058676 0.395257 1.729815 29.389380 -3.013827 0.850106 -6.970328 -0.796702 -0.820995 -1.366645 -0.216274 0.029646 -17.616077 3.805962 4.536506 33.858486 10.136975 -6.846415 -1.731934 1.849481 4.617644 -16.038958 -0.408417 0.543963 
3.161558 48.496265 2.553594 0.018439 -43.434334 -0.016657 2.792693 30.208809 -3.216427 11.580702 -0.496949 -2.008782 5.685931 -0.490443 -1.200829 1.521428 -0.818709 -3.731495 0.347905 -9.476933 -0.057693 1.374255 0.909026 11.819037 -4.021204 4.328972 3.041891 -4.130952 10.470126 -56.064522 -24.119577 -2.020657 -35.701084 1.189933 -39.684433 -22.967577 -0.286248 -24.208744 4.472271 -0.265351 -6.732215 52.910995 -5.855890 21.748436 23.713089 14.441002 35.381783 19.970135 5.762068 29.630114 -4.491528 -23.754646 0.258127 1.883939 28.778000 -1.513977 0.261831 -6.958508 -0.603514 -0.608613 -1.730490 -0.196901 0.253264 -19.588572 3.601192 4.833581 33.931095 9.637819 -6.445265 -2.033354 0.554034 4.189468 -14.197088 -0.674112 0.438335 
3.607843 48.480675 3.033235 -0.005342 -38.951229 -0.035436 3.075996 23.386324 -3.189400 11.862548 -0.703937 -2.059950 5.794642 -0.464515 -1.305290 1.670387 -0.972222 -3.790454 0.251248 -9.593783 0.160454 1.249616 0.910872 11.991558 -4.399203 3.295616 3.311966 -7.359859 8.253076 -55.420082 -27.110739 -2.823906 -39.867031 3.152197 -41.715397 -19.456629 0.217029 -23.767420 4.832768 -1.325945 -6.133418 53.400089 -3.334637 15.312447 18.662460 14.603934 34.099472 20.923315 5.846431 22.884151 -3.995423 -23.223900 0.121851 1.560886 28.639370 -0.407131 -0.430777 -7.317890 -0.393240 0.081725 -1.998061 -0.090598 0.463737 -20.583878 3.195730 4.538401 33.061615 8.986545 -5.897220 -2.595087 -0.160702 3.758566 -12.223598 -0.366534 0.198429 
4.038409 48.417786 3.473837 0.029927 -34.256157 0.006783 2.965836 16.357159 -2.783175 12.036098 -0.860763 -2.147290 5.932701 -0.608509 -1.330201 2.138924 -0.563880 -3.443339 0.080209 -10.251727 -0.351219 0.925650 1.034017 12.289890 -4.679327 2.463868 3.793871 -10.557154 6.083527 -55.927292 -29.504107 -3.822556 -42.715485 5.276101 -43.682678 -16.470583 0.115164 -23.210646 4.478204 -1.649570 -5.988647 54.062016 -1.669714 8.404759 14.218096 13.880662 32.920341 22.199923 6.114238 15.950289 -3.381890 -23.290730 0.120923 1.106955 28.621128 0.293990 -0.587757 -7.658880 0.155506 0.191401 -2.032058 0.288788 0.720366 -21.432646 2.480428 4.328304 31.996119 8.978619 -5.869409 -2.635003 -1.598329 3.398359 -10.997083 -0.337262 0.018857 
4.524327 48.432320 3.907350 0.009070 -24.772799 -0.020892 3.377859 4.628015 -2.240903 12.152718 -1.006126 -2.088175 5.962288 -0.647441 -1.475872 2.014083 -0.598960 -3.321935 0.161464 -10.671062 -0.488340 0.779927 0.859271 12.408151 -5.074964 1.777595 3.996423 -14.155276 2.951657 -56.186096 -31.342968 -4.747436 -45.103142 6.259180 -45.692101 -14.795119 0.246611 -22.557344 4.972988 -2.048517 -6.970812 53.627258 -0.399580 2.791700 11.000866 14.579267 32.959900 22.962639 6.186331 4.675935 -2.245870 -23.007446 0.020374 0.633577 28.710670 1.112946 -0.949242 -8.028440 0.784139 0.688063 -2.473150 0.303772 1.022798 -22.307297 2.311713 4.261972 30.879625 8.021673 -4.960775 -2.124137 -1.811308 2.441860 -10.125855 -0.835615 0.281201 
5.128268 48.377735 4.368155 0.023767 -18.932873 -0.017618 3.598639 -3.701260 -1.757433 12.441691 -1.125502 -2.011017 6.238747 -0.602352 -1.285809 2.077316 -0.362810 -3.231940 0.223841 -11.193486 -1.051977 0.680361 1.016373 13.164393 -5.270137 1.085961 4.114915 -17.466076 0.369729 -56.986561 -32.566418 -6.008497 -47.972050 7.467710 -47.007938 -13.137068 -0.108252 -22.027039 4.618628 -1.683904 -7.872778 53.458710 -0.004358 -0.750883 8.573050 14.903148 32.318317 24.478958 6.420366 -3.642430 -1.568158 -23.038902 0.282052 0.338629 28.955051 2.077798 -1.394331 -8.365536 1.116808 1.389121 -2.537269 0.209032 1.072451 -22.792393 2.130016 4.302418 30.163845 7.815554 -4.644144 -2.173920 -2.891542 2.292056 -8.846238 -0.469903 0.184906 
